<svg width="100" height="102" viewBox="0 0 100 102" fill="none" xmlns="http://www.w3.org/2000/svg">
<path d="M23.9739 17.5423L76.0801 6.91797L90.0241 20.7543V69.6754L80.4835 90.924L73.8785 101.002H39.141L30.8235 71.405L23.9739 17.5423Z" fill="#FFFFFE"/>
<path d="M86.5258 0H13.4767C9.90287 -5.94672e-08 6.47539 1.43372 3.9481 3.98583C1.4208 6.53793 0.000648723 9.99942 0 13.609L0 87.391C0 91.0003 1.4196 94.4618 3.94651 97.014C6.47342 99.5662 9.90065 101 13.4742 101H49.5034L49.5646 64.907H40.2686C39.6881 64.907 39.131 64.6755 38.7187 64.2627C38.3063 63.85 38.0721 63.2894 38.0669 62.7031L38.0229 51.0683C38.0229 50.4785 38.2549 49.9129 38.6678 49.4959C39.0806 49.0788 39.6406 48.8446 40.2246 48.8446H49.4912V37.6026C49.4912 24.5569 57.3805 17.4535 68.9026 17.4535H78.3576C78.9415 17.4535 79.5015 17.6878 79.9144 18.1048C80.3273 18.5218 80.5592 19.0874 80.5592 19.6772V29.4861C80.5592 30.0759 80.3273 30.6415 79.9144 31.0585C79.5015 31.4755 78.9415 31.7098 78.3576 31.7098H72.5672C66.3022 31.7098 65.0864 34.7167 65.0864 39.1221V48.8544H78.8566C79.1652 48.8563 79.4701 48.9237 79.7512 49.0523C80.0324 49.1808 80.2837 49.3677 80.4888 49.6007C80.6939 49.8336 80.8481 50.1076 80.9416 50.4047C81.0351 50.7018 81.0657 51.0154 81.0314 51.3252L79.6663 62.96C79.6009 63.4969 79.3439 63.9912 78.9436 64.3505C78.5433 64.7098 78.0271 64.9094 77.4916 64.912H65.15L65.0888 101.005H86.5258C90.0994 101.005 93.5266 99.5711 96.0535 97.0189C98.5804 94.4667 100 91.0052 100 87.3959V13.609C99.9994 9.99985 98.5795 6.53874 96.0528 3.9867C93.526 1.43466 90.0992 0.000655073 86.5258 0V0Z" fill="#475993"/>
</svg>
