<svg width="123" height="101" viewBox="0 0 123 101" fill="none" xmlns="http://www.w3.org/2000/svg">
<path d="M123 11.9568C118.426 13.9846 113.552 15.3287 108.471 15.9813C113.698 12.827 117.688 7.87023 119.564 1.89569C114.69 4.83246 109.309 6.90684 103.574 8.06446C98.9458 3.08438 92.3499 0 85.1544 0C71.1939 0 59.9548 11.4518 59.9548 25.4908C59.9548 27.5108 60.1239 29.4531 60.5391 31.3022C39.5752 30.2689 21.0253 20.1145 8.56387 4.646C6.38831 8.46069 5.11219 12.827 5.11219 17.5274C5.11219 26.3532 9.60938 34.1768 16.3129 38.7063C12.2616 38.6286 8.28712 37.4399 4.92 35.5675C4.92 35.6452 4.92 35.7462 4.92 35.8472C4.92 48.2314 13.6607 58.5178 25.1227 60.8874C23.0702 61.4546 20.8331 61.7265 18.5115 61.7265C16.8971 61.7265 15.2674 61.6333 13.7376 61.2914C17.0047 71.3837 26.2759 78.8033 37.2998 79.0441C28.7205 85.8267 17.8273 89.9133 6.03469 89.9133C3.96675 89.9133 1.98337 89.82 0 89.5637C11.1699 96.8434 24.4078 101 38.6835 101C85.0853 101 110.454 62.1538 110.454 28.482C110.454 27.3554 110.416 26.2678 110.362 25.1878C115.366 21.5985 119.571 17.1156 123 11.9568Z" fill="#03A9F4"/>
</svg>
