<svg width="175" height="101" viewBox="0 0 175 101" fill="none" xmlns="http://www.w3.org/2000/svg">
<path d="M174.072 91.2141C173.86 90.7521 173.662 90.3689 173.479 90.0619C170.443 84.5303 164.641 77.7406 156.076 69.691L155.895 69.5067L155.804 69.4163L155.713 69.3236H155.621C151.734 65.5753 149.272 63.055 148.242 61.7647C146.355 59.3067 145.933 56.8187 146.964 54.2977C147.692 52.3931 150.428 48.3707 155.164 42.225C157.656 38.9681 159.629 36.3577 161.086 34.3911C171.595 20.2578 176.152 11.2264 174.754 7.29346L174.211 6.37438C173.846 5.82106 172.905 5.31487 171.388 4.85323C169.868 4.39256 167.924 4.31637 165.555 4.62338L139.314 4.80674C138.889 4.65437 138.282 4.66857 137.491 4.85323C136.702 5.03788 136.307 5.13054 136.307 5.13054L135.85 5.36136L135.487 5.63866C135.184 5.82202 134.849 6.14453 134.485 6.60552C134.122 7.0649 133.818 7.60402 133.576 8.21835C130.719 15.6533 127.471 22.566 123.825 28.956C121.578 32.7663 119.513 36.0685 117.628 38.8644C115.746 41.6595 114.166 43.7188 112.892 45.0388C111.615 46.3601 110.463 47.4187 109.428 48.2183C108.395 49.0183 107.607 49.3563 107.061 49.2326C106.513 49.109 105.998 48.9863 105.51 48.8636C104.66 48.3103 103.977 47.5578 103.461 46.6055C102.944 45.6531 102.595 44.4545 102.413 43.0105C102.232 41.5655 102.124 40.3226 102.094 39.2777C102.065 38.234 102.078 36.7577 102.14 34.853C102.203 32.9474 102.232 31.658 102.232 30.982C102.232 28.6467 102.277 26.1122 102.367 23.3779C102.459 20.6436 102.533 18.4771 102.595 16.881C102.657 15.2834 102.686 13.5931 102.686 11.8111C102.686 10.0291 102.579 8.63157 102.367 7.61725C102.158 6.60423 101.836 5.62091 101.413 4.6676C100.987 3.71527 100.363 2.97858 99.5449 2.45561C98.725 1.93328 97.7057 1.51877 96.4927 1.21079C93.2729 0.473785 89.173 0.0750968 84.191 0.0131144C72.8934 -0.109559 65.634 0.628417 62.4146 2.22608C61.139 2.9011 59.9847 3.82341 58.9526 4.9901C57.859 6.34242 57.7064 7.0804 58.496 7.20178C62.1411 7.75413 64.7216 9.07545 66.2404 11.1645L66.7877 12.2714C67.2134 13.0701 67.6385 14.4841 68.0639 16.5114C68.4887 18.5387 68.7628 20.7814 68.8835 23.2381C69.1866 27.7244 69.1866 31.5647 68.8835 34.7594C68.5793 37.9554 68.2921 40.4434 68.018 42.2254C67.7438 44.0074 67.3341 45.4514 66.7877 46.557C66.2404 47.663 65.8763 48.339 65.6937 48.5844C65.5115 48.8297 65.3596 48.9844 65.2389 49.0451C64.4494 49.3511 63.6283 49.507 62.7784 49.507C61.9273 49.507 60.8952 49.0764 59.6806 48.2157C58.4663 47.3551 57.206 46.1729 55.8998 44.6672C54.5936 43.1612 53.1205 41.0567 51.4798 38.3534C49.8404 35.6501 48.1394 32.4551 46.3778 28.7684L44.9203 26.0948C44.0092 24.3748 42.7646 21.8703 41.1852 18.5836C39.6048 15.2956 38.208 12.1152 36.9937 9.04285C36.5083 7.75252 35.7791 6.77016 34.8073 6.09417L34.3512 5.81686C34.0481 5.57151 33.5614 5.31099 32.8938 5.03336C32.2252 4.75606 31.5276 4.55719 30.798 4.43484L5.83249 4.61821C3.28133 4.61821 1.55035 5.20285 0.638906 6.3705L0.274136 6.92286C0.0919106 7.23051 0 7.72185 0 8.39817C0 9.07416 0.182225 9.90382 0.546995 10.8862C4.1915 19.5508 8.15483 27.9071 12.437 35.9564C16.7191 44.0058 20.4402 50.4897 23.598 55.4024C26.7565 60.3187 29.9759 64.9587 33.2563 69.3201C36.5367 73.683 38.7081 76.479 39.7705 77.7074C40.8341 78.938 41.6696 79.858 42.2769 80.4724L44.5552 82.6841C46.013 84.159 48.1538 85.9255 50.9784 87.9835C53.8037 90.0428 56.9316 92.0702 60.3635 94.0688C63.7961 96.0642 67.7895 97.6925 72.3457 98.9518C76.9014 100.212 81.3354 100.718 85.6485 100.474H96.127C98.2521 100.289 99.8621 99.6127 100.956 98.446L101.319 97.984C101.563 97.6173 101.791 97.0475 102.002 96.2808C102.215 95.5128 102.321 94.6667 102.321 93.7463C102.258 91.1046 102.457 88.7238 102.912 86.6041C103.366 84.4851 103.883 82.8874 104.462 81.8115C105.041 80.7364 105.694 79.8293 106.421 79.0939C107.149 78.3569 107.668 77.9104 107.972 77.7568C108.275 77.6021 108.516 77.4972 108.699 77.4343C110.156 76.9429 111.872 77.4188 113.848 78.8641C115.823 80.3081 117.675 82.091 119.407 84.21C121.138 86.331 123.218 88.7105 125.647 91.3522C128.078 93.9949 130.204 95.9593 132.025 97.2515L133.847 98.3575C135.064 99.0955 136.643 99.7715 138.587 100.386C140.528 101 142.228 101.154 143.688 100.846L167.013 100.478C169.32 100.478 171.115 100.092 172.388 99.3254C173.664 98.5574 174.422 97.7112 174.666 96.7908C174.91 95.8695 174.923 94.8242 174.713 93.6556C174.497 92.4899 174.284 91.6747 174.072 91.2141Z" fill="#4D76A1"/>
</svg>
