<svg width="95" height="100" viewBox="0 0 95 100" fill="none" xmlns="http://www.w3.org/2000/svg">
<g clip-path="url(#clip0_107:65)">
<path d="M23.8037 100C23.7656 99.7787 23.7403 99.5554 23.7279 99.3312C23.723 95.3989 23.723 91.4667 23.7279 87.5344V86.8635H0.0221185V85.9831C0.0221185 63.66 0.0147457 41.3369 0 19.0138C0 17.7566 0.259102 16.6201 0.696206 15.4751C1.64414 12.9852 2.5668 10.4825 3.50104 7.98624C4.42932 5.50582 5.35794 3.02575 6.28692 0.546032C6.34384 0.366986 6.38992 0.184642 6.4249 0L95.0042 0C94.9958 0.21164 94.9789 0.42328 94.9789 0.634921C94.9789 20.4409 94.9842 40.2469 94.9947 60.0529C94.9947 60.6783 94.8041 61.0804 94.3796 61.5058C86.0638 69.8374 77.7588 78.1795 69.4647 86.5323C69.3589 86.644 69.2301 86.7312 69.0873 86.7877C68.9445 86.8441 68.7911 86.8686 68.6379 86.8593C62.4763 86.8515 56.3147 86.8536 50.1532 86.8656C49.8683 86.8654 49.5925 86.9666 49.3748 87.1513C45.2025 91.3136 41.041 95.4882 36.8905 99.6751C36.8031 99.777 36.7239 99.8856 36.6535 100H23.8037ZM86.3896 8.65079H15.7431C15.0332 8.65079 15.0311 8.65079 15.0311 9.33968C15.0311 29.9041 15.0311 50.4684 15.0311 71.0328C15.0311 71.2349 15.0311 71.437 15.0311 71.6677H33.8097C34.5112 71.6677 34.5122 71.6677 34.5122 72.3513C34.5122 76.2667 34.5122 80.182 34.5122 84.0974C34.5122 84.2758 34.5122 84.454 34.5122 84.6317L34.6839 84.7037C34.8398 84.5143 34.9799 84.3101 35.1526 84.1365C39.1375 80.1302 43.1212 76.1245 47.104 72.1196C47.244 71.9673 47.4151 71.8472 47.6056 71.7676C47.7962 71.6879 48.0016 71.6506 48.2078 71.6582C55.7386 71.6695 63.2694 71.6748 70.8003 71.6741C70.9797 71.6837 71.1591 71.6535 71.3256 71.5856C71.4922 71.5178 71.6419 71.4139 71.764 71.2815C76.5009 66.4695 81.2465 61.666 86.0009 56.8709C86.1329 56.7486 86.2367 56.599 86.3053 56.4323C86.3739 56.2657 86.4055 56.086 86.398 55.9058C86.3889 40.3855 86.3861 24.8653 86.3896 9.34497V8.65079Z" fill="#7C4F98"/>
<path d="M86.3896 8.65088V9.34612C86.3896 24.8664 86.3924 40.3867 86.398 55.907C86.4055 56.0871 86.3739 56.2668 86.3053 56.4335C86.2368 56.6001 86.1329 56.7498 86.001 56.872C81.2465 61.6692 76.5009 66.4728 71.764 71.2826C71.6419 71.4151 71.4922 71.5189 71.3257 71.5868C71.1591 71.6546 70.9798 71.6848 70.8003 71.6752C63.2695 71.6646 55.7386 71.6593 48.2078 71.6593C48.0016 71.6518 47.7962 71.6891 47.6057 71.7687C47.4152 71.8483 47.244 71.9684 47.104 72.1207C43.1269 76.1306 39.1449 80.1359 35.1579 84.1366C34.9862 84.3101 34.8419 84.5133 34.6892 84.7038L34.5175 84.6318C34.5175 84.4534 34.5175 84.2752 34.5175 84.0974C34.5175 80.1821 34.5175 76.2668 34.5175 72.3514C34.5175 71.6689 34.5175 71.6678 33.815 71.6678H15.0311C15.0311 71.4382 15.0311 71.2361 15.0311 71.0329C15.0311 50.4685 15.0311 29.9041 15.0311 9.33977C15.0311 8.65194 15.0311 8.65088 15.7431 8.65088H86.3896ZM38.9202 26.1874V52.1017H47.44V26.1874H38.9202ZM62.7239 26.1874V52.1429H63.2663C65.7225 52.1429 68.1787 52.1302 70.6391 52.1535C71.1405 52.1535 71.2943 52.0223 71.2932 51.5059C71.2778 43.2392 71.2739 34.9726 71.2816 26.7059C71.2816 26.5366 71.2648 26.3673 71.2564 26.1895L62.7239 26.1874Z" fill="#FFFFFE"/>
<path d="M38.9201 26.187H47.4399V52.1013H38.9201V26.187Z" fill="#7C4F98"/>
<path d="M62.7217 26.1904H71.2532C71.2626 26.3671 71.2784 26.5365 71.2784 26.7068C71.2784 34.9735 71.2823 43.2402 71.29 51.5068C71.29 52.0233 71.1373 52.1598 70.636 52.1545C68.1797 52.1312 65.7235 52.1439 63.2631 52.1439H62.7217V26.1904Z" fill="#7C4F98"/>
</g>
<defs>
<clipPath id="clip0_107:65">
<rect width="95" height="100" fill="white"/>
</clipPath>
</defs>
</svg>
