<svg width="100" height="101" viewBox="0 0 100 101" fill="none" xmlns="http://www.w3.org/2000/svg">
<g clip-path="url(#clip0_107:124)">
<path d="M23.9738 17.3682L76.08 6.84912L90.024 20.5484V68.9852L80.4834 90.0234L73.8784 100.002H39.1408L30.8234 70.6976L23.9738 17.3682Z" fill="#FFFFFE"/>
<path d="M86.5258 -0.000488281H13.4767C9.90287 -0.00048834 6.47539 1.41904 3.9481 3.94588C1.4208 6.47272 0.000648723 9.89994 0 13.4738L0 86.5253C0 90.0989 1.4196 93.5261 3.94651 96.053C6.47342 98.5799 9.90065 99.9995 13.4742 99.9995H49.5034L49.5646 64.2639H40.2686C39.6881 64.2639 39.131 64.0347 38.7187 63.626C38.3063 63.2173 38.0721 62.6623 38.0669 62.0818L38.0229 50.5622C38.0229 49.9782 38.2549 49.4182 38.6678 49.0053C39.0806 48.5924 39.6406 48.3605 40.2246 48.3605H49.4912V37.2298C49.4912 24.3133 57.3805 17.2802 68.9026 17.2802H78.3576C78.9415 17.2802 79.5015 17.5122 79.9144 17.9251C80.3273 18.3379 80.5592 18.898 80.5592 19.4819V29.1937C80.5592 29.7776 80.3273 30.3376 79.9144 30.7505C79.5015 31.1634 78.9415 31.3954 78.3576 31.3954H72.5672C66.3022 31.3954 65.0864 34.3725 65.0864 38.7343V48.3703H78.8566C79.1652 48.3721 79.4701 48.4389 79.7512 48.5662C80.0324 48.6934 80.2837 48.8784 80.4888 49.1091C80.6939 49.3398 80.8481 49.611 80.9416 49.9051C81.0351 50.1993 81.0657 50.5098 81.0314 50.8166L79.6663 62.3362C79.6009 62.8677 79.3439 63.3572 78.9436 63.7129C78.5433 64.0686 78.0271 64.2663 77.4916 64.2688H65.15L65.0888 100.004H86.5258C90.0994 100.004 93.5266 98.5848 96.0535 96.0579C98.5804 93.531 100 90.1038 100 86.5302V13.4738C99.9994 9.90036 98.5795 6.47351 96.0528 3.94674C93.526 1.41997 90.0992 0.000160306 86.5258 -0.000488281V-0.000488281Z" fill="#475993"/>
</g>
<defs>
<clipPath id="clip0_107:124">
<rect width="100" height="100.002" fill="white" transform="translate(0 -0.000488281)"/>
</clipPath>
</defs>
</svg>
