<svg width="172" height="100" viewBox="0 0 172 100" fill="none" xmlns="http://www.w3.org/2000/svg">
<g clip-path="url(#clip0_107:115)">
<path d="M72.1042 54.2617C71.9205 54.6034 71.8171 54.7986 71.708 54.9982C70.673 56.9619 69.2677 58.6027 67.3871 59.7928C64.0855 61.8886 60.2742 61.2469 57.6788 58.1706C56.15 56.3605 54.713 54.4857 53.9192 52.0582C53.7153 52.3568 53.5962 52.5477 53.4613 52.7286C52.5913 53.8971 51.8233 55.169 50.8228 56.2068C49.0786 58.0285 46.9943 59.4482 44.4434 59.7956C40.1928 60.3627 36.7074 57.8548 36.4361 53.7665C36.3193 52.0027 36.2413 50.2366 36.2021 48.468C36.1569 47.3444 36.1924 46.2189 36.3083 45.1003C36.4906 43.6131 34.8958 43.049 33.99 43.7308C33.3242 44.2263 32.7887 44.8761 32.4296 45.6243C31.6085 47.4488 30.9654 49.3566 30.2232 51.2156C29.5255 52.9655 28.8853 54.7469 28.0513 56.4308C26.5985 59.3664 23.0456 60.2521 20.2679 58.5008C18.7004 57.5117 18.2955 55.9585 18.0816 54.2761C17.7012 51.3046 18.1936 48.356 18.2984 45.3975C18.3128 44.9912 18.3616 44.585 18.3558 44.1801C18.3415 43.27 17.6094 42.7446 16.7394 43.003C16.0217 43.2198 15.5666 43.7208 15.2767 44.384L11.128 53.9746C10.6457 55.0915 10.238 56.2499 9.66668 57.3194C8.53693 59.4324 6.70953 60.3698 4.32371 60.1646C2.29677 59.9894 0.574155 58.1692 0.430604 55.9255C0.264085 53.3258 0.143502 50.7203 0.0932592 48.1163C0.0186127 43.8098 -0.0273237 39.5033 0.0171771 35.1967C0.0308569 33.131 0.522166 31.0965 1.45269 29.2523C2.75757 26.6684 5.00127 25.4668 7.86655 25.7755C9.37958 25.9449 10.3356 27.1004 10.4146 28.9967C10.5007 30.9318 10.4921 32.8726 10.5883 34.8048C10.6098 35.2355 10.7835 35.8097 11.0907 36.0193C11.5773 36.3451 12.1286 35.9834 12.4688 35.5685C12.9571 34.9829 13.396 34.3577 13.7809 33.6995C15.169 31.2749 16.4983 28.8187 17.8993 26.397C18.752 24.9256 19.9851 23.9394 21.7379 23.6811C24.6003 23.259 27.0751 25.2027 27.2058 28.0795C27.3048 30.2514 27.3005 32.4276 27.3493 34.6024C27.3363 34.9868 27.3617 35.3715 27.4254 35.7508C27.6264 36.638 28.3011 36.8461 28.9456 36.2044C29.4257 35.7032 29.8781 35.176 30.3007 34.6254C32.2516 32.2066 34.1637 29.7561 36.1547 27.3703C37.1711 26.1516 38.3654 25.0965 39.9962 24.7476C41.2861 24.4518 42.6348 24.5447 43.872 25.0146C45.675 25.7094 46.7904 27.221 46.7287 29.1575C46.6627 31.2333 46.3856 33.3004 46.2737 35.3762C46.0631 39.2903 45.8846 43.2064 45.7382 47.1244C45.6966 48.2053 46.265 48.5125 47.2053 47.9512C48.8805 46.9464 50.0921 45.4707 51.2936 43.972C52.3789 42.6183 52.933 41.1842 52.8497 39.3784C52.7062 36.1556 52.7421 32.91 53.5675 29.7604C53.896 28.4421 54.3778 27.1668 55.003 25.9606C56.8247 22.5628 61.4398 21.7819 64.3755 24.3012C65.8425 25.5616 66.2416 27.2583 66.2043 29.0872C66.1713 30.7954 65.7177 32.3889 64.697 33.7899C64.0051 34.7402 63.8874 35.8599 63.7553 36.9796C63.4338 39.7286 63.3491 42.469 64.1386 45.162C64.7659 47.2966 66.4354 48.1766 68.158 47.2507C68.7813 46.8986 69.335 46.4354 69.7916 45.8841C71.1295 44.305 71.988 42.4547 72.4789 40.4737C73.2254 37.4591 73.801 34.4115 74.5159 31.3941C74.9164 29.703 75.3471 28.0062 75.9514 26.3812C76.5457 24.7792 77.6898 23.6107 79.3966 23.0623C81.8758 22.2642 85.9253 24.3356 86.3919 27.6359C86.679 29.6312 86.2254 31.4744 85.7229 33.3463C85.2033 35.2829 84.5544 37.2007 84.2501 39.1716C83.8869 41.5259 83.7922 43.9261 83.6515 46.3104C83.5725 47.6627 83.6371 49.025 83.6371 50.449C83.8453 50.3557 84.0994 50.2452 84.3549 50.1289C88.0973 48.3675 91.9918 47.1143 96.1261 46.6837C99.6273 46.3191 101.982 48.046 102.77 51.2457C105.132 60.845 113.493 68.2508 123.223 69.5471C136.401 71.3027 148.502 62.5848 150.987 49.5217C151.539 46.5517 151.539 43.5054 150.987 40.5354C150.44 37.4792 152.206 34.7546 155.08 34.2464C158.143 33.7052 160.727 35.58 161.284 38.7496C164.561 57.4026 152.908 75.1082 134.41 79.3473C119.05 82.8672 103.015 75.7097 95.4758 61.29C95.3653 61.079 95.2619 60.8593 95.1485 60.6526C94.2614 59.0018 93.011 58.5094 91.2583 59.1525C88.2696 60.2548 85.4828 61.8416 83.0098 63.8495C82.7663 64.064 82.607 64.3581 82.5605 64.6792C82.0897 68.8336 81.6992 72.998 81.1881 77.1481C80.535 82.481 79.8804 87.8254 78.0229 92.9114C77.5388 94.2588 76.8964 95.544 76.1093 96.7399C74.18 99.6253 70.7721 100.745 67.4388 99.3037C61.1915 96.6021 56.5993 92.2382 54.9499 85.3865C53.7886 80.5502 55.0073 76.1045 57.64 71.9975C60.1407 68.0957 63.4983 65.0094 67.156 62.236C68.5456 61.1823 70.0098 60.2263 71.4238 59.2056C71.6334 59.0549 71.8717 58.7951 71.8961 58.564C72.0396 57.2806 72.11 55.9915 72.2019 54.7039C72.1839 54.5536 72.1512 54.4056 72.1042 54.2617ZM71.1137 71.5194L70.9214 71.4591C69.038 73.2578 67.2479 75.1341 66.2273 77.596C65.2224 80.0263 65.8827 82.7322 67.8422 84.3429C68.8298 85.1525 69.5792 84.9587 69.7687 83.7155C70.1993 80.8445 70.5596 77.9577 70.8984 75.0723C71.0362 73.8966 71.0463 72.708 71.1152 71.5252L71.1137 71.5194Z" fill="#FF2638"/>
<path d="M157.115 7.23751C157.115 8.96012 157.095 10.6827 157.115 12.4053C157.141 14.1021 157.877 14.8586 159.588 14.8744C162.913 14.9046 166.238 14.8859 169.562 14.8888C169.801 14.8768 170.041 14.8768 170.28 14.8888C170.896 14.9519 171.615 14.9275 171.874 15.6223C172.151 16.3688 171.934 17.0837 171.36 17.6593C169.62 19.4039 167.879 21.1471 166.136 22.8889C165.139 23.887 164.141 24.8852 163.143 25.8834C161.501 27.5184 159.522 28.3137 157.203 28.2907C155.336 28.272 153.47 28.2677 151.604 28.3036C151.26 28.3233 150.933 28.4624 150.68 28.697C146.373 32.9451 142.073 37.2038 137.78 41.473C137.451 41.7989 137.319 42.0774 137.417 42.5884C138.799 49.7947 133.178 56.0965 125.878 55.5611C119.849 55.119 115.256 49.4386 116.084 43.431C116.987 36.8693 122.974 32.7465 129.449 34.2553C129.898 34.36 130.179 34.3055 130.512 33.9682C134.675 29.81 138.851 25.6642 143.04 21.5309C143.222 21.3651 143.365 21.1615 143.46 20.9343C143.555 20.7071 143.599 20.4619 143.588 20.216C143.588 17.9938 143.554 15.7659 143.689 13.5509C143.794 11.8283 144.62 10.3511 145.842 9.12664C148.64 6.30921 151.448 3.50183 154.266 0.704499C154.5 0.468647 154.78 0.283888 155.09 0.161876C156.238 -0.268777 156.974 0.127424 157.026 1.35048C157.108 3.30708 157.048 5.27086 157.048 7.23607L157.115 7.23751Z" fill="#FF2638"/>
<path d="M138.191 15.7027C138.191 18.98 135.32 21.4907 132.124 20.8505C127.113 19.8456 122.228 20.1327 117.482 22.0548C112.027 24.2569 107.864 27.9562 105.003 33.0954C104.142 34.6299 102.925 35.6391 101.17 35.9204C99.033 36.2635 97.276 35.5386 96.0385 33.7916C94.8011 32.0446 94.7251 30.1382 95.7371 28.2405C97.452 25.0267 99.674 22.1106 102.317 19.6044C107.807 14.3835 114.315 11.2469 121.8 10.1616C125.858 9.58079 129.987 9.72661 133.993 10.5923C136.507 11.1277 138.187 13.1992 138.191 15.7027Z" fill="#FF2638"/>
</g>
<defs>
<clipPath id="clip0_107:115">
<rect width="172" height="99.9158" fill="white" transform="translate(0 -0.000488281)"/>
</clipPath>
</defs>
</svg>
