<svg width="100" height="100" viewBox="0 0 100 100" fill="none" xmlns="http://www.w3.org/2000/svg">
<path d="M98.0469 9.76514V90.2339C98.0469 94.5483 94.5488 98.0464 90.2344 98.0464H9.76562C5.45121 98.0464 1.95312 94.5483 1.95312 90.2339V9.76514C1.95312 5.45072 5.45121 1.95264 9.76562 1.95264H90.2344C94.5488 1.95264 98.0469 5.45072 98.0469 9.76514Z" fill="#FCDA4C"/>
<path d="M79.7217 68.0396L79.7506 68.0507L79.7806 68.0571C80.3621 68.1823 80.7721 68.5103 80.9865 68.92C81.2012 69.3298 81.2369 69.8524 81.0084 70.3995L81.0082 70.4001C80.5668 71.4626 79.3473 72.195 77.7916 72.7298C76.5498 73.1567 75.185 73.429 74.0129 73.6628C73.7346 73.7185 73.4672 73.7718 73.2148 73.8245C72.9131 73.8876 72.7527 74.1259 72.6662 74.3146C72.5775 74.5079 72.5205 74.7476 72.4736 74.98C72.4478 75.1077 72.424 75.2382 72.4 75.3704C72.3307 75.7507 72.259 76.144 72.1308 76.5255C71.9615 77.0292 71.7172 77.4298 71.326 77.6591C70.9389 77.886 70.3265 77.9927 69.3172 77.729C64.0066 76.3401 60.1799 78.9552 57.6953 80.653C57.193 80.9962 56.7453 81.3021 56.3516 81.5298C52.631 83.1895 47.7873 83.2345 44.0144 81.687C42.5178 80.8853 41.4887 80.1688 40.641 79.5608C40.5584 79.5017 40.4773 79.4433 40.3975 79.3858C39.6598 78.8546 39.0197 78.3938 38.299 78.0583C36.6674 77.2991 34.6728 77.1999 30.1238 77.9024C29.3908 78.0157 28.9293 77.8505 28.6119 77.586C28.2777 77.3073 28.0525 76.8767 27.8861 76.3708C27.7648 76.0024 27.6859 75.6341 27.6111 75.2853C27.582 75.1495 27.5535 75.0167 27.5234 74.8882C27.473 74.6724 27.4143 74.4538 27.333 74.2794C27.26 74.1226 27.1119 73.878 26.8185 73.823L26.818 73.8228C26.7236 73.8052 26.6267 73.7872 26.5275 73.7688C25.3887 73.5579 23.9389 73.2894 22.5924 72.8499C21.1113 72.3665 19.8539 71.706 19.2486 70.7796L19.2484 70.7794C18.8552 70.1786 18.8151 69.5458 19.0154 69.0476C19.2146 68.5519 19.6648 68.1544 20.333 68.0405L20.3723 68.0339L20.4096 68.0194L23.2416 66.9138C27.9648 65.0679 31.45 60.9774 32.5207 56.0214L32.5217 56.0167L32.5225 56.012L32.5377 55.9319L32.6262 55.4683H32.1541H26.5625C24.6199 55.4683 23.0469 53.8952 23.0469 51.9526C23.0469 50.0101 24.6199 48.437 26.5625 48.437H32.6019H33.0299L32.9908 48.0106L32.6254 44.0247C31.6971 33.8081 39.7416 24.9995 50 24.9995C60.2584 24.9995 68.3027 33.8081 67.3744 44.0247L67.0113 48.011L66.9724 48.437H67.4004H73.4375C75.3801 48.437 76.9531 50.0101 76.9531 51.9526C76.9531 53.8952 75.3801 55.4683 73.4375 55.4683H67.8848H67.4033L67.5025 55.9394C68.5566 60.9415 72.0676 65.0735 76.8355 66.9202C76.8355 66.9202 76.8355 66.9202 76.8357 66.9204L79.7217 68.0396Z" fill="#F0F0FA" stroke="#202020" stroke-width="4"/>
</svg>
