<svg width="100" height="100" viewBox="0 0 100 100" fill="none" xmlns="http://www.w3.org/2000/svg">
<g clip-path="url(#clip0_107:112)">
<path d="M100 18.9933C96.2812 20.6245 92.3187 21.7058 88.1875 22.2308C92.4375 19.6933 95.6813 15.7058 97.2063 10.8995C93.2438 13.262 88.8687 14.9308 84.2062 15.862C80.4437 11.8558 75.0812 9.37451 69.2312 9.37451C57.8812 9.37451 48.7437 18.587 48.7437 29.8808C48.7437 31.5058 48.8812 33.0683 49.2188 34.5558C32.175 33.7245 17.0938 25.5558 6.9625 13.112C5.19375 16.1808 4.15625 19.6933 4.15625 23.4745C4.15625 30.5745 7.8125 36.8683 13.2625 40.512C9.96875 40.4495 6.7375 39.4933 4 37.987C4 38.0495 4 38.1308 4 38.212C4 48.1745 11.1062 56.4495 20.425 58.3558C18.7562 58.812 16.9375 59.0308 15.05 59.0308C13.7375 59.0308 12.4125 58.9558 11.1687 58.6808C13.825 66.7995 21.3625 72.7683 30.325 72.962C23.35 78.4183 14.4938 81.7058 4.90625 81.7058C3.225 81.7058 1.6125 81.6308 0 81.4245C9.08125 87.2808 19.8438 90.6245 31.45 90.6245C69.175 90.6245 89.8 59.3745 89.8 32.287C89.8 31.3808 89.7688 30.5058 89.725 29.637C93.7937 26.7495 97.2125 23.1433 100 18.9933Z" fill="#03A9F4"/>
</g>
<defs>
<clipPath id="clip0_107:112">
<rect width="100" height="100" fill="white" transform="translate(0 -0.000488281)"/>
</clipPath>
</defs>
</svg>
