<svg width="100" height="100" viewBox="0 0 100 100" fill="none" xmlns="http://www.w3.org/2000/svg">
<g clip-path="url(#clip0_107:108)">
<path d="M99.4699 72.9991C99.3488 72.7382 99.2359 72.5217 99.131 72.3483C97.396 69.2235 94.0805 65.3881 89.1864 60.8408L89.083 60.7367L89.0312 60.6857L88.9789 60.6333H88.9264C86.7052 58.5159 85.2986 57.0922 84.7096 56.3633C83.6319 54.9748 83.3904 53.5693 83.9794 52.1452C84.3956 51.0693 85.9588 48.7971 88.6654 45.3254C90.0891 43.4856 91.2167 42.011 92.0493 40.9C98.0547 32.9162 100.658 27.8144 99.8596 25.5927L99.5494 25.0735C99.3409 24.761 98.803 24.475 97.9362 24.2142C97.0674 23.954 95.957 23.911 94.603 24.0844L79.6084 24.188C79.3655 24.1019 79.0186 24.1099 78.5667 24.2142C78.1154 24.3185 77.8896 24.3709 77.8896 24.3709L77.6287 24.5013L77.4215 24.6579C77.2479 24.7615 77.057 24.9437 76.8485 25.2041C76.6412 25.4636 76.4677 25.7681 76.3291 26.1152C74.6966 30.3152 72.8405 34.2201 70.7574 37.8298C69.473 39.9822 68.2935 41.8476 67.2163 43.427C66.1405 45.0059 65.238 46.1692 64.5097 46.9149C63.7802 47.6613 63.1219 48.2593 62.5307 48.711C61.9404 49.1629 61.4897 49.3538 61.1777 49.284C60.865 49.2141 60.5705 49.1448 60.2916 49.0755C59.806 48.763 59.4154 48.3379 59.1209 47.7999C58.8251 47.2619 58.6259 46.5848 58.5218 45.7691C58.4182 44.9529 58.3569 44.2508 58.3394 43.6605C58.3232 43.0709 58.3307 42.2369 58.3659 41.161C58.402 40.0845 58.4182 39.3562 58.4182 38.9743C58.4182 37.6551 58.4439 36.2234 58.4955 34.6787C58.5481 33.1341 58.5905 31.9103 58.6261 31.0087C58.6615 30.1062 58.6779 29.1513 58.6779 28.1447C58.6779 27.138 58.6166 26.3486 58.4955 25.7756C58.3759 25.2034 58.1923 24.6479 57.9503 24.1094C57.7068 23.5714 57.3505 23.1552 56.8829 22.8598C56.4144 22.5648 55.832 22.3306 55.1388 22.1566C53.2989 21.7403 50.9561 21.5151 48.1093 21.4801C41.6534 21.4108 37.5052 21.8276 35.6656 22.7302C34.9367 23.1115 34.2771 23.6325 33.6873 24.2915C33.0623 25.0555 32.9752 25.4723 33.4263 25.5409C35.5093 25.8529 36.9839 26.5993 37.8517 27.7794L38.1645 28.4047C38.4078 28.8559 38.6507 29.6547 38.8937 30.7999C39.1365 31.9451 39.2931 33.212 39.3621 34.5998C39.5353 37.1341 39.5353 39.3035 39.3621 41.1081C39.1883 42.9135 39.0241 44.319 38.8675 45.3256C38.7108 46.3323 38.4767 47.148 38.1645 47.7726C37.8517 48.3973 37.6437 48.7792 37.5393 48.9178C37.4352 49.0564 37.3484 49.1437 37.2795 49.178C36.8283 49.3509 36.3591 49.439 35.8735 49.439C35.3871 49.439 34.7973 49.1957 34.1033 48.7095C33.4094 48.2234 32.6892 47.5555 31.9428 46.705C31.1964 45.8543 30.3546 44.6655 29.4171 43.1384C28.4803 41.6113 27.5083 39.8064 26.5017 37.7238L25.6688 36.2135C25.1482 35.2419 24.437 33.8271 23.5344 31.9705C22.6314 30.1131 21.8332 28.3165 21.1393 26.5809C20.8619 25.852 20.4452 25.2971 19.8899 24.9152L19.6293 24.7586C19.4561 24.62 19.178 24.4728 18.7965 24.316C18.4144 24.1593 18.0158 24.047 17.5989 23.9779L3.33286 24.0815C1.87505 24.0815 0.885918 24.4117 0.36509 25.0713L0.156649 25.3834C0.0525204 25.5571 0 25.8347 0 26.2168C0 26.5986 0.104129 27.0673 0.312569 27.6222C2.39515 32.5168 4.65991 37.2373 7.10685 41.7843C9.55379 46.3313 11.6801 49.9941 13.4846 52.7693C15.2895 55.5465 17.1291 58.1676 19.0036 60.6313C20.8781 63.0959 22.1189 64.6754 22.726 65.3693C23.3338 66.0644 23.8113 66.5842 24.1583 66.9312L25.4602 68.1806C26.2932 69.0138 27.5165 70.0117 29.1306 71.1742C30.7451 72.3375 32.5324 73.4828 34.4935 74.6118C36.455 75.739 38.7369 76.6588 41.3405 77.3702C43.9437 78.0823 46.4775 78.3681 48.9421 78.2302H54.9298C56.1442 78.1254 57.0642 77.7435 57.6895 77.0844L57.8967 76.8235C58.036 76.6163 58.1664 76.2944 58.2867 75.8613C58.4086 75.4275 58.4691 74.9495 58.4691 74.4296C58.4335 72.9373 58.5471 71.5924 58.8068 70.395C59.0663 69.198 59.3621 68.2955 59.6929 67.6876C60.0236 67.0804 60.3967 66.5679 60.8119 66.1525C61.2281 65.7362 61.5246 65.484 61.6986 65.3972C61.8714 65.3098 62.0095 65.2506 62.1136 65.215C62.9466 64.9374 63.927 65.2062 65.0562 66.0227C66.1845 66.8384 67.2427 67.8456 68.2326 69.0426C69.2219 70.2407 70.4106 71.5849 71.7987 73.0772C73.1878 74.57 74.4023 75.6797 75.4432 76.4097L76.4842 77.0345C77.1793 77.4513 78.0818 77.8332 79.1928 78.1803C80.3017 78.5271 81.2734 78.6139 82.1077 78.4405L95.436 78.2326C96.7543 78.2326 97.7801 78.0143 98.5077 77.5812C99.2368 77.1473 99.6699 76.6694 99.8096 76.1495C99.9489 75.629 99.9564 75.0385 99.836 74.3783C99.7126 73.7198 99.591 73.2594 99.4699 72.9991Z" fill="#4D76A1"/>
</g>
<defs>
<clipPath id="clip0_107:108">
<rect width="100" height="100" fill="white" transform="translate(0 -0.000488281)"/>
</clipPath>
</defs>
</svg>
