<svg width="40" height="40" viewBox="0 0 40 40" fill="none" xmlns="http://www.w3.org/2000/svg">
<path d="M20.0001 0.800781C9.39605 0.800781 0.800049 9.39678 0.800049 20.0008C0.800049 30.6048 9.39605 39.2008 20.0001 39.2008C30.6041 39.2008 39.2001 30.6048 39.2001 20.0008C39.2001 9.39678 30.6041 0.800781 20.0001 0.800781ZM27.3841 22.4628C27.3841 22.4628 29.0821 24.1388 29.5001 24.9168C29.5121 24.9328 29.5181 24.9488 29.5221 24.9568C29.6921 25.2428 29.7321 25.4648 29.6481 25.6308C29.5081 25.9068 29.0281 26.0428 28.8641 26.0548H25.8641C25.6561 26.0548 25.2201 26.0008 24.6921 25.6368C24.2861 25.3528 23.8861 24.8868 23.4961 24.4328C22.9141 23.7568 22.4101 23.1728 21.9021 23.1728C21.8375 23.1727 21.7734 23.1828 21.7121 23.2028C21.3281 23.3268 20.8361 23.8748 20.8361 25.3348C20.8361 25.7908 20.4761 26.0528 20.2221 26.0528H18.8481C18.3801 26.0528 15.942 25.8888 13.7821 23.6108C11.138 20.8208 8.75805 15.2248 8.73805 15.1728C8.58805 14.8108 8.89805 14.6168 9.23605 14.6168H12.266C12.67 14.6168 12.8021 14.8628 12.8941 15.0808C13.0021 15.3348 13.3981 16.3448 14.0481 17.4808C15.1021 19.3328 15.7481 20.0848 16.2661 20.0848C16.3632 20.0836 16.4586 20.0589 16.5441 20.0128C17.2201 19.6368 17.0941 17.2268 17.0641 16.7268C17.0641 16.6328 17.062 15.6488 16.7161 15.1768C16.4681 14.8348 16.0461 14.7048 15.7901 14.6568C15.8937 14.5138 16.0302 14.3979 16.1881 14.3188C16.6521 14.0868 17.4881 14.0528 18.3181 14.0528H18.7801C19.6801 14.0648 19.9121 14.1228 20.2381 14.2048C20.8981 14.3628 20.9121 14.7888 20.8541 16.2468C20.8361 16.6608 20.8181 17.1288 20.8181 17.6808C20.8181 17.8008 20.8121 17.9288 20.8121 18.0648C20.7921 18.8068 20.7681 19.6488 21.2921 19.9948C21.3604 20.0376 21.4394 20.0605 21.5201 20.0608C21.7021 20.0608 22.2501 20.0608 23.7341 17.5148C24.1917 16.6953 24.5894 15.8437 24.9241 14.9668C24.9541 14.9148 25.0421 14.7548 25.1461 14.6928C25.2228 14.6537 25.3079 14.6337 25.3941 14.6348H28.9561C29.3441 14.6348 29.6101 14.6928 29.6601 14.8428C29.7481 15.0808 29.6441 15.8068 28.0181 18.0088L27.2921 18.9668C25.8181 20.8988 25.8181 20.9968 27.3841 22.4628Z" fill="#FAE160"/>
</svg>
